<svg xmlns="http://www.w3.org/2000/svg" version="1.1" xmlns:xlink="http://www.w3.org/1999/xlink" xmlns:svgjs="http://svgjs.dev/svgjs" viewBox="0 0 800 800"><defs><linearGradient x1="50%" y1="0%" x2="50%" y2="100%" id="wwwhirl-grad"><stop stop-color="hsl(206, 75%, 49%)" stop-opacity="1" offset="45%"></stop><stop stop-color="hsl(331, 90%, 56%)" stop-opacity="1" offset="100%"></stop></linearGradient></defs><g stroke-width="2" stroke="#0c7489" fill="none" stroke-linecap="round"><path d="M37.00000251770027 435.7899492911684C50.75000289917 422.38369891923537 75.50000358581553 368.9649474372255 103.000004348755 371.43994750589C130.50000511169446 373.91494757455456 141.5000054168703 447.46369961503615 169.00000617980973 447.66994962075825C196.5000069427492 447.8761996264803 207.50000724792503 374.9049476020204 235.00000801086446 372.42994753335586C262.500008773804 369.95494746469126 273.5000090789798 436.4086993083345 301.0000098419193 435.7899492911684C328.50001060485874 435.1711992740022 339.5000109100345 372.96619754823314 367.000011672974 369.4599474509584C394.50001243591345 365.9536973536836 405.5000127410893 422.4661989215242 433.0000135040287 418.9599488242494C460.5000142669682 415.45369872697466 471.50001457214404 347.26744683526624 499.0000153350834 352.6299469840394C526.5000160980228 357.99244713281263 537.5000164031987 444.08119952119466 565.0000171661382 444.6999495383608C592.5000179290777 445.3186995555269 603.5000182342535 359.7249471808778 631.000018997193 355.59994706643687C658.5000197601325 351.47494695199595 669.5000200653083 422.6311989261019 697.0000208282477 424.89994898904433C724.5000215911871 427.16869905198683 749.2500222778326 378.6586977061616 763.0000226593024 366.48994736856093 " transform="rotate(99, 400, 400)"></path><path d="M48.00000244140632 434.7053910392402C61.33333614464971 421.70539067857794 85.3333368104878 369.9053892414774 112.00000421697456 372.3053893080612C138.6666716234613 374.705389374645 149.33333858605602 446.02539135329386 176.00000599254278 446.2253913588425C202.66667339902952 446.42539136439115 213.33334036162427 375.6653894012785 240.000007768111 373.2653893346947C266.6666751745978 370.8653892681109 277.3333421371925 435.30539105588616 304.00000954367925 434.7053910392402C330.66667695016605 434.1053910225943 341.3333439127607 373.7853893491212 368.00001131924745 370.3853892547942C394.66667872573424 366.9853891604671 405.33334568832896 421.7853906807974 432.00001309481576 418.3853905864703C458.66668050130244 414.98539049214327 469.3333474638972 348.86538865775935 496.0000148703839 354.06538880202424C522.6666822768707 359.26538894628914 533.3333492394653 442.745391262296 560.0000166459522 443.3453912789419C586.666684052439 443.9453912955879 597.3333510150337 360.94538899289785 624.0000184215204 356.9453888819248C650.6666858280073 352.9453887709518 661.3333527906019 421.9453906852363 688.0000201970887 424.14539074627146C714.6666876035754 426.3453908073066 738.6666882694134 379.30538950226395 752.0000219726569 367.5053891748936 " transform="rotate(96, 400, 400)"></path><path d="M59.00000236511238 433.6208404167066C71.9166693901294 421.027090067315 95.16667003516005 370.84583867512384 121.00000408519412 373.1708387396269C146.83333813522813 375.49583880412996 157.1666717552418 444.58709072094604 183.0000058052758 444.7808407263213C208.83333985530987 444.9745907316966 219.1666734753235 376.4258388299312 245.00000752535757 374.10083876542814C270.8333415753916 371.7758387009251 281.1666751954052 434.2020904328324 307.0000092454393 433.6208404167066C332.83334329547336 433.03959040058083 343.16667691548696 374.6045887794038 369.00001096552097 371.31083868802443C394.83334501555504 368.0170885966451 405.1666786355687 421.1045900694651 431.0000126856027 417.81083997808577C456.8333467356368 414.5170898867064 467.16668035565044 350.463338109647 493.0000144056845 355.5008382494036C518.8333484557185 360.53833838916023 529.1666820757321 441.4095906327919 555.0000161257661 441.99084064891764C580.8333501758003 442.5720906650434 591.1666837958139 362.1658384343124 617.000017845848 358.2908383268073C642.8333518958821 354.4158382193022 653.1666855158957 421.2595900737653 679.0000195659296 423.3908401328931C704.8333536159636 425.5220901920209 728.0833542609943 379.9520889277608 741.0000212860114 368.5208386106208 " transform="rotate(93, 400, 400)"></path><path d="M70.00000228881842 432.53630123826474C82.50000263560909 420.34880090014383 105.00000325983231 371.7862995528621 130.00000395341365 374.0362996152844C155.00000464699497 376.2862996777067 165.00000492442751 443.1488015326901 190.00000561800886 443.3363015378919C215.0000063115902 443.5238015430938 225.00000658902275 377.1862997026757 250.00000728260406 374.93629964025337C275.00000797618543 372.68629957783105 285.000008253618 433.09880125387036 310.0000089471993 432.53630123826474C335.00000964078066 431.9738012226592 345.00000991821315 375.4237996537782 370.0000106117945 372.23629956534654C395.00001130537584 369.04879947691495 405.0000115828084 420.42380090222457 430.0000122763897 417.236300813793C455.000012969971 414.04880072536133 465.0000132474036 352.06129900562644 490.00001394098496 356.9362991408748C515.0000146345662 361.8112992761231 525.0000149119987 440.07380144737954 550.0000156055801 440.6363014629851C575.0000162991615 441.19880147859067 585.000016576594 363.38629931981876 610.0000172701755 359.63629921578155C635.0000179637568 355.8862991117444 645.0000182411893 420.5738009063861 670.0000189347705 422.6363009636066C695.0000196283519 424.698801020827 717.5000202525752 380.5987997973495 730.0000205993658 369.5362994904398 " transform="rotate(90, 400, 400)"></path><path d="M81.00000221252448 431.45176205982295C93.08333588108879 419.6705117329727 114.83333648450457 372.72676043060034 139.0000038216332 374.9017604909419C163.1666711587618 377.0767605512835 172.83333809361326 441.71051234443405 197.0000054307419 441.8917623494625C221.16667276787052 442.07301235449097 230.833339702722 377.9467605754201 255.00000703985063 375.77176051507854C279.16667437697924 373.59676045473697 288.83334131183074 431.99551207490833 313.00000864895935 431.45176205982295C337.16667598608797 430.9080120447375 346.8333429209394 376.2430105281526 371.000010258068 373.16176044266865C395.16667759519663 370.0805103571848 404.8333445300481 419.7430117349841 429.00001186717674 416.6617616495002C453.16667920430535 413.5805115640163 462.8333461391569 353.6592599016059 487.00001347628546 358.37176003234595C511.1666808134141 363.084260163086 520.8333477482655 438.73801226196724 545.0000150853941 439.2817622770526C569.1666824225229 439.825512292138 578.8333493573742 364.60676020532514 603.000016694503 360.98176010475584C627.1666840316316 357.3567600041865 636.8333509664831 419.88801173900686 661.0000183036116 421.88176179431997C685.1666856407402 423.8755118496331 706.9166862441559 381.2455106669382 719.0000199127203 370.55176037025876 " transform="rotate(87, 400, 400)"></path><path d="M92.00000213623053 430.3672114372893C103.6666691265685 418.9922111217098 124.66666970917683 373.66720986424684 148.00000368985275 375.7672099225076C171.33333767052864 377.8672099807685 180.666671262799 440.27221171208623 204.00000524347493 440.4472117169413C227.33333922415085 440.62221172179636 236.66667281642125 378.7072100040728 260.00000679709717 376.607209945812C283.33334077777306 374.50720988755114 292.66667437004344 430.8922114518545 316.0000083507193 430.3672114372893C339.3333423313953 429.84221142272406 348.66667592366565 377.0622099584352 372.00000990434154 374.08720987589896C395.3333438850174 371.1122097933628 404.6666774772878 419.0622111236518 428.00001145796375 416.08721104111567C451.3333454386397 413.11221095857945 460.6666790309101 355.2572093534935 484.000013011586 359.8072094797253C507.33334699226185 364.3572096059571 516.6666805845323 437.4022116324631 540.0000145652082 437.9272116470283C563.3333485458841 438.4522116615935 572.6666821381544 365.82720964673973 596.0000161188304 362.3272095496383C619.3333500995063 358.8272094525369 628.6666836917767 419.20221112753586 652.0000176724526 421.12721118094163C675.3333516531285 423.0522112343474 696.3333522357368 381.8922100924351 708.0000192260748 371.56720980598595 " transform="rotate(84, 400, 400)"></path><path d="M103.00000205993659 429.28268370293927C114.25000237204819 418.31393339863047 134.5000029338491 374.6076821860769 157.00000355807228 376.632682242257C179.50000418229547 378.65768229843707 188.5000044319848 438.833933967922 211.00000505620795 439.0026839726037C233.50000568043117 439.17143397728535 242.50000593012047 379.4676823209091 265.0000065543437 377.442682264729C287.5000071785669 375.4176822085489 296.5000074282562 429.7889337169843 319.0000080524794 429.28268370293927C341.5000086767026 428.77643368889426 350.50000892639184 377.88143227690136 373.00000955061506 375.01268219731287C395.5000101748383 372.14393211772443 404.5000104245276 418.3814334005031 427.00001104875076 415.5126833209147C449.500011672974 412.6439332413262 458.5000119226633 356.85518169356476 481.00001254688647 361.2426818152883C503.50001317110963 365.6301819370118 512.5000134207988 436.06643389114254 535.0000140450221 436.57268390518755C557.5000146692455 437.0789339192326 566.5000149189347 367.04768197633786 589.0000155431579 363.6726818827044C611.5000161673811 360.2976817890709 620.5000164170704 418.51643340424846 643.0000170412935 420.3726834557469C665.5000176655168 422.2289335072453 685.7500182273176 382.5389324061156 697.0000185394292 372.5826821298968 " transform="rotate(81, 400, 400)"></path><path d="M114.00000198364263 428.1981368951029C124.83333561752788 417.6356366020648 144.33333615852135 375.5481354344206 166.0000034262918 377.49813548851995C187.6666706940623 379.4481355426193 196.3333376011705 437.39563715027145 218.000004868941 437.55813715477973C239.6666721367115 437.720637159288 248.3333390438197 380.228135564259 270.0000063115902 378.2781355101597C291.6666735793607 376.32813545606035 300.33334048646896 428.6856369086277 322.0000077542394 428.1981368951029C343.6666750220099 427.71063688157807 352.3333419291181 378.70063552188117 374.0000091968886 375.93813544524045C395.6666764646591 373.1756353685997 404.3333433717673 417.7006366038681 426.0000106395378 414.93813652722736C447.66667790730827 412.1756364505866 456.3333448144165 358.45313496014967 478.00001208218697 362.6781350773649C499.66667934995746 366.90313519458016 508.33334625706556 434.7306370763357 530.0000135248362 435.21813708986053C551.6666807926067 435.70563710338536 560.3333476997147 368.2681352324497 582.0000149674854 365.0181351422841C603.6666822352558 361.76813505211857 612.3333491423641 417.83063660747473 634.0000164101345 419.61813665706575C655.666683677905 421.4056367066568 675.1666842188985 383.1856356463097 686.0000178527837 373.59813538032125 " transform="rotate(78, 400, 400)"></path><path d="M125.00000190734869 427.11358627256925C135.41666886300757 416.9573359908018 154.1666693831936 376.48858486806705 175.00000329451137 378.36358492008566C195.83333720582914 380.23858497210426 204.16667077035626 435.95733651792364 225.00000468167406 436.1135865222585C245.83333859299182 436.26983652659345 254.16667215751897 380.9885849929117 275.00000606883674 379.1135849408931C295.8333399801545 377.23858488887447 304.16667354468166 427.5823362855739 325.0000074559994 427.11358627256925C345.8333413673172 426.6448362595646 354.16667493184434 379.51983495216376 375.00000884316205 376.86358487847076C395.8333427544799 374.20733480477776 404.166676319007 417.0198359925358 425.0000102303248 414.3635859188428C445.83334414164256 411.70733584514977 454.1666777061697 360.0510844120373 475.0000116174875 364.1135845247443C495.83334552880524 368.17608463745125 504.1666790933323 433.39483644683156 525.0000130046501 433.86358645983626C545.8333469159679 434.3323364728409 554.166680480495 369.4885846738643 575.0000143918128 366.3635845871666C595.8333483031306 363.23858450046896 604.1666818676579 417.14483599600374 625.0000157789755 418.8635860436874C645.8333496902933 420.58233609137113 664.5833502104794 383.8323350718066 675.0000171661382 374.61358481604844 " transform="rotate(75, 400, 400)"></path><path d="M136.00000183105476 426.02903183533834C146.00000210848728 416.27903156484166 164.00000260786584 377.42903048701623 184.00000316273093 379.2290305369541C204.00000371759597 381.02903058689196 212.000003939542 434.51903207087855 232.00000449440708 434.6690320750401C252.00000504927215 434.8190320792016 260.0000052712182 381.7490306068671 280.0000058260833 379.94903055692924C300.0000063809483 378.1490305069914 308.00000660289436 426.47903184782285 328.00000715775946 426.02903183533834C348.00000771262455 425.5790318228539 356.00000793457053 380.3390305677491 376.0000084894356 377.7890304970038C396.00000904430067 375.2390304262585 404.0000092662467 416.33903156650626 424.0000098211118 413.7890314957609C444.0000103759769 411.23903142501564 452.0000105979229 361.6490300492277 472.000011152788 365.5490301574264C492.000011707653 369.4490302656251 500.00001192959905 432.0590320026302 520.0000124844642 432.50903201511466C540.0000130393292 432.9590320275991 548.0000132612753 370.70903030058156 568.0000138161404 367.7090302173518C588.0000143710055 364.70903013412203 596.0000145929514 416.4590315698354 616.0000151478165 418.1090316156118C636.0000157026815 419.7590316613882 654.00001620206 384.4790306826062 664.0000164794926 375.62903043707837 " transform="rotate(72, 400, 400)"></path><path d="M146.9999864959717 424.9445079156856C156.5833200951779 415.60075765645956 173.83332057374906 378.36950662354354 192.9999877721614 380.09450667140067C212.16665497057375 381.8195067192578 219.8333218499387 433.08075814141165 238.99998904835104 433.22450814539974C258.1666562467634 433.3682581493879 265.8333231261284 382.50950673840066 284.9999903245407 380.78450669054354C304.1666575229531 379.0595066426864 311.83332440231806 425.3757579276499 330.9999916007304 424.9445079156856C350.1666587991428 424.51325790372135 357.83332567850766 381.15825670091255 376.99999287692003 378.714506633115C396.1666600753324 376.2707565653174 403.8333269546974 415.6582576580548 422.99999415310975 413.21450759025726C442.1666613515221 410.7707575224597 449.83332823088705 363.2470062039962 468.9999954292994 366.9845063076866C488.16666262771173 370.72200641137704 495.83332950707666 430.7232580760069 514.9999967054891 431.1545080879712C534.1666639039015 431.5857580999355 541.8333307832664 371.929506444877 560.9999979816788 369.0545063651152C580.1666651800912 366.1795062853533 587.8333320594561 415.7732576612453 606.9999992578685 417.3545077051143C626.1666664562807 418.93575774898335 643.4166669348518 385.12575681098394 653.000000534058 376.6445065756865 " transform="rotate(69, 400, 400)"></path><path d="M157.99998641967778 423.8599649225465C167.1666533406576 414.9224646745912 183.6666537984213 379.3099636865845 201.99998764038094 380.9599637323609C220.33332148234058 382.6099637781373 227.66665501912445 431.64246513845836 245.9999888610841 431.77996514227306C264.33332270304373 431.91746514608775 271.6666562398276 383.2699637964478 289.99999008178725 381.61996375067145C308.3333239237469 379.9699637048951 315.6666574605308 424.2724649339906 333.99999130249046 423.8599649225465C352.3333251444501 423.44746491110243 359.6666586812339 381.97746376058967 377.99999252319355 379.6399636957398C396.3333263651532 377.30246363089 403.6666599019371 414.97746467611705 421.99999374389677 412.6399646112672C440.3333275858564 410.30246454641735 447.6666611226403 364.84496328527837 465.9999949645999 368.4199633844605C484.3333288065595 371.99496348364266 491.6666623433434 429.38746507589735 509.9999961853031 429.79996508734143C528.3333300272627 430.2124650987855 535.6666635640465 373.1499635156861 553.9999974060063 370.39996343939214C572.3333312479659 367.6499633630982 579.6666647847499 415.0874646791688 597.9999986267094 416.5999647211305C616.3333324686689 418.11246476309213 632.8333329264326 385.77246386587535 641.9999998474125 377.6599636408082 " transform="rotate(66, 400, 400)"></path><path d="M168.99998634338385 422.77541430001287C177.7499865861373 414.24416406332824 193.49998702309355 380.25041312023103 210.9999875086005 381.8254131639266C228.4999879941074 383.40041320762225 235.49998818831023 430.20416450611054 252.99998867381714 430.3354145097519C270.49998915932406 430.4666645133932 277.49998935352687 384.0304132251005 294.9999898390338 382.4554131814049C312.4999903245407 380.88041313770924 319.4999905187435 423.16916431093676 336.99999100425043 422.77541430001287C354.49999148975735 422.381664289089 361.49999168396016 382.79666319087227 378.9999921694671 380.56541312897014C396.49999265497405 378.334163067068 403.4999928491768 414.29666406478475 420.9999933346837 412.0654140028826C438.4999938201907 409.8341639409805 445.4999940143935 366.442912737166 462.9999944999004 369.8554128318399C480.4999949854073 373.26791292651376 487.4999951796101 428.0516644463932 504.99999566511707 428.4454144573171C522.4999961506239 428.83916446824105 529.4999963448267 374.37041295710065 546.9999968303338 371.74541288427463C564.4999973158407 369.1204128114486 571.4999975100434 414.4016640676978 588.9999979955503 415.8454141077521C606.4999984810572 417.28916414780645 622.2499989180135 386.41916329137223 630.999999160767 378.6754130765354 " transform="rotate(63, 400, 400)"></path><path d="M179.9999862670899 421.69087130687376C188.33331983161702 413.5658710814598 203.3333202477658 381.190870183272 219.99998737682003 382.6908702248869C236.66665450587425 384.19087026650175 243.33332135749595 428.7658715031573 259.9999884865502 428.8908715066252C276.6666556156044 429.0158715100931 283.33332246722614 384.7908702831477 299.99998959628033 383.29087024153284C316.6666567253345 381.79087019991795 323.3333235769563 422.06587131727747 339.9999907060105 421.69087130687376C356.6666578350647 421.31587129647005 363.3333246866864 383.6158702505494 379.9999918157406 381.490870191595C396.6666589447948 379.36587013264057 403.33332579641655 413.615871082847 419.9999929254708 411.49087102389257C436.666660054525 409.36587096493815 443.3333269061467 368.0408698184482 459.9999940352009 371.2908699086138C476.6666611642551 374.5408699987794 483.33332801587676 426.71587144628364 499.99999514493106 427.09087145668735C516.6666622739854 427.46587146709106 523.333329125607 375.5908700279098 539.9999962546613 373.09086995855165C556.6666633837156 370.5908698891935 563.3333302353371 413.7158710856213 579.9999973643913 415.0908711237683C596.6666644934455 416.4658711619153 611.6666649095944 387.06587034626364 619.9999984741214 379.6908701416571 " transform="rotate(60, 400, 400)"></path><path d="M190.99998619079594 420.6063206843401C198.9166530770967 412.8875704701969 213.16665347243807 382.13131961691846 228.99998724503956 383.5563196564526C244.83332101764108 384.9813196959867 251.1666545266817 427.3275708708095 266.99998829928325 427.446320874104C282.8333220718847 427.5650708773985 289.16665558092535 385.5513197118004 304.99998935352687 384.1263196722663C320.83332312612833 382.7013196327321 327.166656635169 420.9625706942237 342.9999904077705 420.6063206843401C358.833324180372 420.2500706744566 365.1666576894126 384.435069680832 380.9999914620141 382.4163196248253C396.8333252346156 380.3975695688186 403.1666587436563 412.9350704715147 418.99999251625775 410.91632041550804C434.83332628885927 408.8975703595013 441.1666597978999 369.6388192703359 456.99999357050143 372.72631935599316C472.8333273431029 375.8138194416505 479.1666608521435 425.3800708167795 494.99999462474506 425.736320826663C510.8333283973466 426.09257083654654 517.1666619063872 376.81131946932436 532.9999956789886 374.43631940343414C548.8333294515903 372.06131933754386 555.1666629606309 413.0300704741503 570.9999967332324 414.33632051038995C586.8333305058338 415.64257054662954 601.0833309011753 387.7125697717605 608.9999977874759 380.7063195773843 " transform="rotate(57, 400, 400)"></path><path d="M201.999986114502 419.52178913529286C209.49998632257638 412.2092889324203 222.99998669711033 383.07178812405124 237.99998711325912 384.42178816150465C252.99998752940792 385.771788198958 258.99998769586745 425.889289311948 273.99998811201624 426.0017893150691C288.9999885281651 426.11428931819023 294.99998869462456 386.3117882139394 309.9999891107734 384.961788176486C324.9999895269222 383.6117881390326 330.99998969338174 419.8592891446562 345.99999010953053 419.52178913529286C360.9999905256793 419.18428912592947 366.9999906921388 385.2542881846009 381.99999110828765 383.34178813154193C396.99999152443644 381.42928807848295 402.99999169089597 412.25428893366876 417.99999210704476 410.3417888806098C432.99999252319355 408.4292888275508 438.99999268965314 371.23678779570986 453.99999310580193 374.16178787685885C468.9999935219507 377.08678795800785 474.9999936884102 424.04428926076173 489.99999410455905 424.38178927012507C504.9999945207079 424.7192892794884 510.9999946871674 378.0317879842253 525.9999951033162 375.7817879218029C540.9999955194651 373.5317878593806 546.9999956859245 412.34428893616564 561.9999961020733 413.5817889704979C576.9999965182221 414.8192890048302 590.499996892756 388.3592882707437 597.9999971008303 381.7217880865978 " transform="rotate(54, 400, 400)"></path><path d="M212.99998603820805 418.4372385127592C220.08331956805608 411.53098832115734 232.8333199217826 384.0122375576977 246.99998698147868 385.28723759307036C261.16665404117475 386.562237628443 266.8333208650532 424.4509886796002 280.9999879247493 424.5572386825479C295.16665498444536 424.6634886854956 300.83332180832383 387.0722376425921 314.99998886801995 385.7972376072194C329.166655927716 384.52223757184674 334.83332275159444 418.7559885216024 348.99998981129056 418.4372385127592C363.1666568709866 418.11848850391607 368.83332369486504 386.0734876148835 382.99999075456117 384.26723756477224C397.16665781425723 382.460987514661 402.8333246381357 411.57348832233646 416.9999916978318 409.7672382722252C431.1666587575279 407.96098822211394 436.8333255814063 372.8347372475975 450.99999264110244 375.5972373242382C465.1666597007985 378.35973740087894 470.8333265246769 422.7084886312576 484.99999358437304 423.02723864010073C499.16666064406917 423.3459886489439 504.8333274679476 379.2522374256398 518.9999945276437 377.1272373666854C533.1666615873398 375.002237307731 538.8333284112182 411.65848832469464 552.9999954709143 412.82723835711954C567.1666625306103 413.9959883895445 579.9166628843368 389.0059876962406 586.9999964141849 382.7372375223251 " transform="rotate(51, 400, 400)"></path><path d="M223.9999859619141 417.35269170492285C230.6666528135358 410.8526915245917 242.66665314645485 384.9526908060414 255.99998684969822 386.15269083933333C269.3333205529416 387.35269087262526 274.66665403423895 423.01269186194963 287.99998773748234 423.11269186472396C301.3333214407257 423.21269186749834 306.6666549220231 387.832690885942 319.99998862526644 386.6326908526501C333.33332232850984 385.4326908193582 338.6666558098072 417.6526917132458 351.99998951305054 417.35269170492285C365.33332321629393 417.0526916965999 370.6666566975913 386.89269085986336 383.9999904008347 385.1926908126998C397.3333241040781 383.4926907655363 402.66665758537545 410.8926915257014 415.99999128861884 409.1926914785379C429.3333249918621 407.49269143137434 434.66665847315954 374.4326905141824 447.9999921764029 377.03269058631486C461.3333258796463 379.6326906584473 466.6666593609436 421.3726918164507 479.99999306418704 421.6726918247737C493.33332676743044 421.9726918330967 498.6666602487278 380.47269068175166 511.99999395197113 378.47269062626515C525.3333276552146 376.47269057077864 530.666661136512 410.9726915279209 543.9999948397553 412.07269155843846C557.3333285429986 413.172691588956 569.3333288759177 389.65269093643474 575.9999957275394 383.75269077274953 " transform="rotate(48, 400, 400)"></path><path d="M234.99998588562016 416.268152526481C241.2499860590155 410.17440235742055 252.49998637112708 385.8931516837797 264.99998671791775 387.01815171499084C277.4999870647084 388.143151746202 282.49998720342467 421.57440267369367 294.99998755021534 421.6681526762946C307.499987897006 421.7619026788955 312.4999880357223 388.5931517586865 324.999988382513 387.4681517274753C337.49998872930365 386.34315169626416 342.49998886801995 416.5494025342838 354.9999892148106 416.268152526481C367.4999895616013 415.9869025186782 372.49998970031754 387.7119017342377 384.9999900471082 386.11815169002193C397.4999903938989 384.5244016458061 402.49999053261513 410.2119023584609 414.9999908794058 408.6181523142451C427.49999122619647 407.0244022700293 432.4999913649127 376.03065141016185 444.9999917117034 378.468151477786C457.49999205849406 380.9056515454102 462.4999921972103 420.0369026310384 474.999992544001 420.3181526388412C487.4999928907917 420.59940264664397 492.49999302950795 381.69315156725804 504.9999933762987 379.81815151523944C517.4999937230893 377.94315146322083 522.4999938618056 410.28690236054166 534.9999942085963 411.3181523891519C547.4999945553868 412.3494024177621 558.7499948674986 390.2994018060234 564.9999950408939 384.7681516525685 " transform="rotate(45, 400, 400)"></path><path d="M245.9999858093262 415.18360762599326C251.83331930449518 409.49610746820355 262.33331959579937 386.83360683947205 273.9999865861373 387.88360686860244C285.66665357647526 388.9336068977329 290.33332037261044 420.13610776339175 301.9999873629484 420.2236077658193C313.6666543532864 420.3111077682468 318.3333211494216 389.35360690938506 329.9999881397595 388.3036068802546C341.66665513009747 387.25360685112423 346.33332192623266 415.4461076332759 357.9999889165706 415.18360762599326C369.66665590690855 414.92110761871066 374.3333227030438 388.5311068865662 385.99998969338174 387.04360684529814C397.6666566837197 385.55610680403004 402.3333234798548 409.5311074691745 413.9999904701928 408.04360742790647C425.6666574605308 406.55610738663836 430.33332425666595 377.6286065840954 441.99999124700395 379.9036066472113C453.66665823734184 382.1786067103272 458.3333250334771 418.7011077235802 469.999992023815 418.9636077308628C481.66665901415297 419.2261077381454 486.33332581028816 382.91360673071847 497.99999280062616 381.16360668216777C509.6666597909641 379.4136066336171 514.3333265870992 409.60110747111656 525.9999935774372 410.5636074978195C537.6666605677751 411.52610752452233 548.1666608590793 390.9461069535662 553.9999943542483 385.7836068103416 " transform="rotate(42, 400, 400)"></path><path d="M256.99998573303225 414.0990684475514C262.41665254997486 408.8178183010324 272.1666528204716 387.7740677172103 282.9999864543569 388.74906774425995C293.8333200882421 389.72406777130965 298.1666535417962 418.6978185751357 308.99998717568144 418.77906857738986C319.83332080956666 418.860318579644 324.1666542631208 390.1140677821295 334.999987897006 389.13906775507985C345.8333215308913 388.16406772803015 350.1666549844454 414.3428184543139 360.99998861833063 414.0990684475514C371.8333222522159 413.855318440789 376.16665570577 389.3503177609406 386.99998933965526 387.96906772262025C397.8333229735405 386.58781768429986 402.1666564270946 408.85031830193407 412.9999900609798 407.4690682636137C423.83332369486504 406.0878182252933 428.1666571484192 379.22656748007483 438.9999907823044 381.33906753868246C449.83332441618967 383.4515675972901 454.16665786974374 417.36531853816786 464.999991503629 417.60906854493027C475.8333251375143 417.8528185516927 480.1666585910683 384.13406761622485 490.99999222495364 382.50906757114205C501.83332585883886 380.88406752605925 506.166659312393 408.91531830373737 516.9999929462782 409.8090683285329C527.8333265801634 410.70281835332844 537.5833268506601 391.59281782315486 542.9999936676028 386.7990676901606 " transform="rotate(39, 400, 400)"></path><path d="M267.9999856567383 413.01452545441236C272.99998579545456 408.13952531916397 281.9999860451438 388.7145247802513 291.99998632257643 389.6145248052202C301.9999866000089 390.51452483018915 305.99998671098194 417.25952557218244 315.9999869884145 417.3345255742632C325.99998726584704 417.409525576344 329.99998737682006 390.8745248401767 339.99998765425255 389.9745248152078C349.9999879316851 389.07452479023885 353.9999880426581 413.2395254606546 363.99998832009067 413.01452545441236C373.9999885975232 412.78952544817014 377.9999887084962 390.1695248206177 387.9999889859287 388.8945247852451C397.9999892633613 387.6195247498724 401.9999893743343 408.1695253199963 411.99998965176684 406.8945252846236C421.9999899291994 405.619525249251 425.9999900401724 380.824524561357 435.9999903176049 382.77452461545636C445.99999059503745 384.7245246695557 449.99999070601046 416.02952553805824 459.999990983443 416.25452554430046C469.99999126087556 416.4795255505427 473.9999913718486 385.354524687034 483.9999916492811 383.8545246454191C493.9999919267137 382.3545246038042 497.99999203768664 408.2295253216609 507.9999923151192 409.05452534454906C517.9999925925517 409.8795253674372 526.999992842241 392.23952487804627 531.9999929809572 387.8145247552824 " transform="rotate(36, 400, 400)"></path><path d="M279.0000008392334 411.929978646576C283.58333429972333 407.46122852259833 291.8333345286052 389.654978028595 301.000001449585 390.4799780514832C310.1666683705648 391.3049780743714 313.8333351389567 415.82122875453194 323.0000020599366 415.8899787564393C332.16666898091637 415.95872875834664 335.83333574930833 391.6349780835267 345.00000267028815 390.80997806063846C354.166669591268 389.9849780377503 357.83333635965994 412.13622865229803 367.00000328063976 411.929978646576C376.1666702016196 411.72372864085395 379.8333369700115 390.98872806559757 389.0000038909913 389.8199780331727C398.16667081197113 388.6512280007477 401.8333375803631 407.48872852336126 411.0000045013429 406.3199784909363C420.16667142232274 405.1512284585114 423.8333381907147 382.4224778279419 433.00000511169446 384.209977877533C442.1666720326743 385.99747792712407 445.83333880106625 414.6937287232514 455.00000572204607 414.89997872897345C464.1666726430259 415.1062287346955 467.8333394114178 386.57497794314577 477.0000063323977 385.19997790499883C486.1666732533775 383.82497786685184 489.83334002176946 407.5437285248871 499.0000069427492 408.299978545868C508.166673863729 409.0562285668488 516.4166740926108 392.8862281182404 521.0000075531008 388.82997800570683 " transform="rotate(33, 400, 400)"></path><path d="M290.00000076293946 410.8454366071112C294.16666754520304 406.7829364944042 301.66666775327747 390.5954360453103 310.00000131780456 391.34543606611777C318.33333488233166 392.0954360869252 321.6666683081425 414.382936705253 330.0000018726696 414.4454367069869C338.33333543719675 414.5079367087209 341.6666688630076 392.39543609524816 350.0000024275347 391.64543607444074C358.3333359920618 390.8954360536333 361.66666941787264 411.03293661231305 370.0000029823998 410.8454366071112C378.3333365469269 410.65793660190934 381.66666997273774 391.807936078949 390.00000353726483 390.7454360494718C398.3333371017919 389.6829360199946 401.66667052760283 406.8079364950978 410.0000040921299 405.7454364656206C418.333337656657 404.6829364361434 421.6666710824679 384.0204358628984 430.00000464699497 385.6454359079812C438.3333382115221 387.270435953064 441.6666716373329 413.3579366768161 450.00000520186006 413.545436682018C458.3333387663872 413.7329366872199 461.666672192198 387.7954359676292 470.00000575672516 386.5454359329501C478.3333393212523 385.2954358982711 481.6666727470631 406.85793649648497 490.0000063115902 407.5454365155585C498.3333398761173 408.23293653463196 505.8333400841917 393.53293612680613 510.00000686645524 389.8454360245029 " transform="rotate(30, 400, 400)"></path><path d="M301.00000068664554 409.76089075294914C304.75000079068275 406.1046406515129 311.5000009779497 391.5358902473284 319.00000118602406 392.21089026605506C326.5000013940985 392.88589028478174 329.5000014773283 412.94464084127674 337.00000168540265 413.0008908428373C344.5000018934771 413.05714084439785 347.5000019767068 393.15589029227243 355.00000218478124 392.48089027354575C362.50000239285566 391.805890254819 365.5000024760854 409.9296407576308 373.00000268415977 409.76089075294914C380.5000028922342 409.59214074826747 383.50000297546393 392.6271402776032 391.00000318353835 391.6708902510737C398.5000033916127 390.7146402245442 401.5000034748425 406.1271406521371 409.00000368291694 405.1708906256076C416.5000038909913 404.2146405990781 419.5000039742211 385.61839008315764 427.00000418229547 387.08089012373216C434.5000043903699 388.5433901643067 437.50000447359963 412.0221408156836 445.00000468167406 412.19089082036527C452.5000048897485 412.35964082504694 455.5000049729782 389.0158901774154 463.00000518105264 387.8908901462042C470.50000538912707 386.76589011499306 473.5000054723568 406.17214065338555 481.0000056804312 406.7908906705517C488.5000058885056 407.40964068771785 495.25000607577255 394.1796403206746 499.0000061798097 390.86089022860165 " transform="rotate(27, 400, 400)"></path><path d="M312.00000061035155 408.67634775981C315.33333403616246 405.4263476696445 321.3333342026219 392.47634731036936 328.0000010542436 393.0763473270153C334.6666679058653 393.67634734366123 337.333334646514 411.50634783832345 344.0000014981357 411.5563478397106C350.6666683497574 411.6063478410978 353.3333350904061 393.91634735031965 360.0000019420278 393.31634733367366C366.6666687936495 392.7163473170277 369.33333553429816 408.82634776397157 376.0000023859198 408.67634775981C382.6666692375415 408.52634775564854 385.3333359781902 393.4463473372803 392.0000028298119 392.5963473136985C398.6666696814336 391.7463472901168 401.33333642208225 405.4463476701993 408.00000327370395 404.5963476466176C414.6666701253256 403.74634762303583 417.3333368659743 387.2163471644398 424.000003717596 388.51634720050606C430.6666705692177 389.8163472365723 433.33333730986635 410.686347815574 440.00000416148805 410.83634781973547C446.66667101310975 410.98634782389695 449.3333377537584 390.23634724822443 456.0000046053801 389.2363472204812C462.6666714570018 388.236347192738 465.3333381976505 405.4863476713091 472.0000050492722 406.03634768656786C478.66667190089385 406.58634770182664 484.6666720673534 394.826347375566 488.0000054931642 391.87634729372337 " transform="rotate(24, 400, 400)"></path><path d="M323.0000005340576 407.591804766671C325.9166672816421 404.74805468777606 331.1666674272942 393.41680437341034 337.0000009224632 393.94180438797554C342.83333441763216 394.46680440254073 345.1666678156997 410.06805483537016 351.0000013108687 410.11180483658393C356.8333348060377 410.15555483779775 359.16666820410535 394.6768044083668 365.0000016992743 394.1518043938016C370.8333351944433 393.62680437923643 373.16666859251086 407.7230547703123 379.00000208767983 407.591804766671C384.8333355828488 407.4605547630297 387.1666689809164 394.26555439695744 393.0000024760854 393.52180437632336C398.83333597125437 392.77805435568933 401.16666936932194 404.7655546882616 407.00000286449097 404.0218046676275C412.83333635965994 403.2780546469935 415.1666697577275 388.81430424572204 421.0000032528965 389.95180427727996C426.83333674806545 391.0893043088379 429.1666701461331 409.3505548154644 435.00000364130204 409.4818048191057C440.833337136471 409.613054822747 443.16667053453864 391.45680431903355 449.0000040297076 390.58180429475823C454.8333375248766 389.70680427048285 457.16667092294415 404.8005546892326 463.0000044181131 405.28180470258405C468.8333379132821 405.7630547159355 474.0833380589342 395.4730544304574 477.0000048065187 392.89180435884515 " transform="rotate(21, 400, 400)"></path><path d="M334.0000004577637 406.50726081985755C336.5000005271218 404.0697607522334 341.00000065196645 394.357260482777 346.00000079068275 394.80726049526146C351.000000929399 395.25726050774597 353.0000009848855 408.6297608787426 358.0000011236018 408.667260879783C363.00000126231805 408.70476088082336 365.00000131780456 395.4372605127397 370.0000014565208 394.9872605002553C375.0000015952371 394.5372604877708 377.00000165072356 406.61976082297866 382.00000178943986 406.50726081985755C387.00000192815617 406.39476081673644 389.0000019836426 395.08476050296025 394.00000212235886 394.4472604852739C399.00000226107517 393.8097604675876 401.0000023165617 404.0847607526495 406.0000024552779 403.4472607349632C411.0000025939942 402.80976071727684 413.00000264948073 390.4122603733299 418.000002788197 391.38726040037955C423.0000029269132 392.3622604274292 425.0000029823998 408.0147608616805 430.00000312111604 408.1272608648016C435.0000032598323 408.2397608679227 437.00000331531885 392.67726043616835 442.0000034540351 391.92726041536093C447.00000359275134 391.17726039455346 449.00000364823785 404.1147607534818 454.00000378695415 404.5272607649259C459.0000039256704 404.93976077637 463.50000405051503 396.1197605316745 466.00000411987315 393.90726047029256 " transform="rotate(18, 400, 400)"></path><path d="M344.99999656677244 405.4227168730441C347.08332995790425 403.39146681669064 350.83333006194147 395.2977165921437 354.99999684420504 395.6727166025474C359.16666362646856 396.04771661295115 360.833330339374 407.191466922115 364.99999712163753 407.222716922982C369.1666639039011 407.25396692384896 370.8333306168065 396.19771661711263 374.9999973990701 395.82271660670887C379.16666418133366 395.44771659630516 380.83333089423905 405.51646687564505 384.99999767650263 405.4227168730441C389.16666445876615 405.3289668704432 390.8333311716716 395.90396660896306 394.9999979539351 395.3727165942244C399.1666647361987 394.8414665794858 400.83333144910415 403.40396681703743 404.9999982313677 402.87271680229884C409.16666501363125 402.34146678756025 410.8333317265367 392.01021650093776 414.9999985088002 392.82271652347913C419.1666652910638 393.6352165460205 420.8333320039692 406.6789669078966 424.99999878623277 406.77271691049754C429.16666556849634 406.86646691309846 430.83333228140174 393.8977165533031 434.9999990636653 393.2727165359636C439.1666658459289 392.64771651862407 440.8333325588343 403.428966817731 444.9999993410978 403.77271682726774C449.1666661233614 404.1164668368045 452.9166662273986 396.7664666328916 454.99999961853035 394.92271658173996 " transform="rotate(15, 400, 400)"></path><path d="M355.9999964904785 404.338173879905C357.66666320338396 402.7131738348222 360.6666632866137 396.23817365518465 363.99999671242455 396.5381736635077C367.3333301382354 396.83817367183065 368.66666350855974 405.7531739191617 371.9999969343706 405.7781739198553C375.33333036018144 405.8031739205489 376.6666637305058 396.9581736751598 379.9999971563166 396.65817366683683C383.3333305821275 396.35817365851386 384.6666639524518 404.41317388198576 387.9999973782626 404.338173879905C391.3333308040735 404.2631738778243 392.66666417439785 396.72317366864013 395.99999760020864 396.29817365684926C399.33333102601955 395.8731736450584 400.6666643963439 402.72317383509966 403.9999978221547 402.2981738233088C407.33333124796553 401.8731738115179 408.6666646182899 393.60817358221993 411.9999980441007 394.25817360025303C415.33333146991157 394.9081736182861 416.6666648402359 405.343173907787 419.99999826604676 405.41817390986773C423.3333316918576 405.4931739119485 424.66666506218195 395.1181736241122 427.9999984879928 394.6181736102406C431.33333191380365 394.118173596369 432.666665284128 402.74317383565455 435.99999870993884 403.01817384328393C439.33333213574963 403.2931738509133 442.3333322189794 397.413173687783 443.9999989318849 395.9381736468617 " transform="rotate(12, 400, 400)"></path><path d="M366.9999964141846 403.2536299330916C368.2499964488636 402.03487989927953 370.499996511286 397.1786297645514 372.9999965806441 397.4036297707936C375.49999665000223 397.6286297770358 376.49999667774546 404.3148799625341 378.99999674710364 404.3336299630543C381.49999681646176 404.3523799635745 382.49999684420504 397.7186297795327 384.9999969135631 397.4936297732905C387.4999969829213 397.26862976704825 388.4999970106645 403.30987993465214 390.9999970800227 403.2536299330916C393.4999971493808 403.19737993153103 394.49999717712404 397.54237977464294 396.99999724648217 397.2236297657998C399.49999731584035 396.90487975695663 400.4999973435836 402.04237989948757 402.9999974129417 401.7236298906444C405.4999974822998 401.40487988180126 406.4999975100431 395.2061297098278 408.9999975794012 395.6936297233526C411.49999764875935 396.18112973687744 412.49999767650263 404.0073799540031 414.99999774586075 404.06362995556367C417.4999978152189 404.1198799571242 418.49999784296216 396.338629741247 420.9999979123203 395.9636297308433C423.4999979816784 395.5886297204396 424.4999980094217 402.05737989990376 426.9999980787798 402.2636299056258C429.49999814813793 402.46987991134785 431.74999821056025 398.0598797890001 432.99999824523934 396.9536297583091 " transform="rotate(9, 400, 400)"></path><path d="M378.0000001525879 402.16908693995254C378.8333335090406 401.3565869174111 380.3333335506555 398.11908682759235 382.0000002635609 398.26908683175384C383.66666697646633 398.4190868359153 384.3333336616285 402.8765869595809 386.0000003745339 402.8890869599277C387.66666708743935 402.90158696027447 388.3333337726015 398.4790868375799 390.0000004855069 398.32908683341844C391.66666719841237 398.1790868292569 392.33333388357454 402.2065869409929 394.00000059647994 402.16908693995254C395.6666673093854 402.13158693891216 396.33333399454756 398.36158683432006 398.00000070745295 398.14908682842463C399.6666674203584 397.9365868225292 400.3333341055206 401.36158691754986 402.000000818426 401.1490869116544C403.6666675313314 400.93658690575893 404.33333421649354 396.80408679110997 406.000000929399 397.1290868001265C407.66666764230445 397.45408680914306 408.33333432746656 402.6715869538935 410.000001040372 402.70908695493387C411.66666775327747 402.74658695597424 412.3333344384396 397.55908681205614 414.00000115134503 397.3090868051203C415.6666678642505 397.05908679818447 416.3333345494126 401.37158691782724 418.00000126231805 401.50908692164194C419.66666797522345 401.6465869254567 421.16666801683834 398.7065868438915 422.00000137329107 397.96908682343087 " transform="rotate(6, 400, 400)"></path><path d="M389.00000007629393 401.0845429931391C389.4166667545203 400.6782929818684 390.1666667753277 399.059542936959 391.00000013178044 399.13454293903976C391.83333348823317 399.2095429411205 392.1666668308143 401.4382930029533 393.00000018726695 401.4445430031267C393.8333335437197 401.4507930033001 394.16666688630073 399.2395429419528 395.00000024275346 399.16454293987204C395.8333335992062 399.0895429377913 396.1666669417873 401.1032929936593 397.00000029823997 401.0845429931391C397.8333336546927 401.0657929926189 398.16666699727375 399.1807929403229 399.0000003537265 399.07454293737516C399.8333337101792 398.96829293442744 400.16666705276026 400.68079298193777 401.000000409213 400.57454297899005C401.8333337656657 400.46829297604233 402.16666710824677 398.4020429187178 403.0000004646995 398.5645429232261C403.8333338211522 398.7270429277344 404.1666671637333 401.33579300010956 405.000000520186 401.3545430006298C405.83333387663873 401.37329300115 406.1666672192198 398.7795429291909 407.0000005756725 398.654542925723C407.83333393212524 398.5295429222551 408.1666672747063 400.68579298207646 409.000000631159 400.7545429839838C409.8333339876117 400.82329298589116 410.5833340084192 399.3532929451086 411.00000068664554 398.9845429348783 " transform="rotate(3, 400, 400)"></path></g></svg>